#Comment line ignore any data following # character 
#Hierarchical Translation and Rotation (.htr) file 
[Header]	
#Header keywords are followed by a single value 
FileType HTR		#Single word string
DataType HTRS		#Translation followed by rotation and scale data
FileVersion 1		#integer
NumSegments 84		#integer
NumFrames 2		#integer
DataFrameRate 30		#integer, data frame rate in this file
EulerRotationOrder ZYX
CalibrationUnits mm
RotationUnits Degrees
GlobalAxisofGravity Y
BoneLengthAxis Y
ScaleFactor 1.00
[SegmentNames&Hierarchy]
#CHILD	PARENT
MASTER GLOBAL
root MASTER
chest root
L_mid_tent01 root
R_mid_tent01 root
spine01 root
Bip01_Neck chest
L_humerus chest
R_humerus chest
weapon_bone chest
Bip01_Head Bip01_Neck
eye_left_bone Bip01_Head
eye_right_bone Bip01_Head
L_forearm L_humerus
L_front_hand L_forearm
L_weapon_bone L_forearm
L_front_hand01_01 L_front_hand
L_front_hand02_01 L_front_hand
L_front_hand03_01 L_front_hand
L_front_hand01_02 L_front_hand01_01
L_front_hand02_02 L_front_hand02_01
L_front_hand03_02 L_front_hand03_01
R_forearm R_humerus
R_front_hand R_forearm
R_weapon_bone R_forearm
R_front_hand01_01 R_front_hand
R_front_hand02_01 R_front_hand
R_front_hand03_01 R_front_hand
R_front_hand01_02 R_front_hand01_01
R_front_hand02_02 R_front_hand02_01
R_front_hand03_02 R_front_hand03_01
null_rope01_connect L_mid_tent01
Rope1_Seg01 null_rope01_connect
Rope1_Seg02 Rope1_Seg01
Rope1_Seg03 Rope1_Seg02
Rope1_Seg04 Rope1_Seg03
Rope1_Seg05 Rope1_Seg04
Rope1_Seg06 Rope1_Seg05
Rope1_Seg07 Rope1_Seg06
Rope1_Seg09 Rope1_Seg07
L_mid_hand01 Rope1_Seg09
L_mid_hand02 Rope1_Seg09
L_mid_hand03 Rope1_Seg09
null_rope02_connect R_mid_tent01
Rope2_Seg01 null_rope02_connect
Rope2_Seg02 Rope2_Seg01
Rope2_Seg03 Rope2_Seg02
Rope2_Seg04 Rope2_Seg03
Rope2_Seg05 Rope2_Seg04
Rope2_Seg06 Rope2_Seg05
Rope2_Seg07 Rope2_Seg06
Rope2_Seg09 Rope2_Seg07
R_mid_hand01 Rope2_Seg09
R_mid_hand02 Rope2_Seg09
R_mid_hand03 Rope2_Seg09
spine02 spine01
spine03 spine02
pelvis spine03
null_rope03_connect pelvis
null_rope04_connect pelvis
Rope3_Seg01 null_rope03_connect
Rope3_Seg02 Rope3_Seg01
Rope3_Seg03 Rope3_Seg02
Rope3_Seg04 Rope3_Seg03
Rope3_Seg05 Rope3_Seg04
Rope3_Seg06 Rope3_Seg05
Rope3_Seg07 Rope3_Seg06
Rope3_Seg08 Rope3_Seg07
Rope3_Seg09 Rope3_Seg08
R_rear_hand01 Rope3_Seg09
R_rear_hand02 Rope3_Seg09
R_rear_hand03 Rope3_Seg09
Rope4_Seg01 null_rope04_connect
Rope4_Seg02 Rope4_Seg01
Rope4_Seg03 Rope4_Seg02
Rope4_Seg04 Rope4_Seg03
Rope4_Seg05 Rope4_Seg04
Rope4_Seg06 Rope4_Seg05
Rope4_Seg07 Rope4_Seg06
Rope4_Seg08 Rope4_Seg07
Rope4_Seg09 Rope4_Seg08
L_rear_hand01 Rope4_Seg09
L_rear_hand02 Rope4_Seg09
L_rear_hand03 Rope4_Seg09
[BasePosition]
#SegmentName Tx, Ty, Tz, Rx, Ry, Rz, BoneLength
MASTER 0.000000 0.000000 0.000000 -90.000000 0.000000 0.000000 10.000000 
root 0.000000 0.000000 0.000000 0.000000 0.000000 0.000000 10.000000 
chest 0.000000 0.000000 0.000000 0.000000 0.000000 0.000000 10.000000 
L_mid_tent01 0.000000 0.000000 0.000000 0.000000 0.000000 0.000000 10.000000 
R_mid_tent01 0.000000 0.000000 0.000000 0.000000 0.000000 0.000000 10.000000 
spine01 0.000000 0.000000 0.000000 0.000000 0.000000 0.000000 10.000000 
Bip01_Neck 0.000000 0.000000 0.000000 0.000000 0.000000 0.000000 10.000000 
L_humerus 0.000000 0.000000 0.000000 0.000000 0.000000 0.000000 10.000000 
R_humerus 0.000000 0.000000 0.000000 0.000000 0.000000 0.000000 10.000000 
weapon_bone 0.000000 0.000000 0.000000 0.000000 0.000000 0.000000 10.000000 
Bip01_Head 0.000000 0.000000 0.000000 0.000000 0.000000 0.000000 10.000000 
eye_left_bone 0.000000 0.000000 0.000000 0.000000 0.000000 0.000000 10.000000 
eye_right_bone 0.000000 0.000000 0.000000 0.000000 0.000000 0.000000 10.000000 
L_forearm 0.000000 0.000000 0.000000 0.000000 0.000000 0.000000 10.000000 
L_front_hand 0.000000 0.000000 0.000000 0.000000 0.000000 0.000000 10.000000 
L_weapon_bone 0.000000 0.000000 0.000000 0.000000 0.000000 0.000000 10.000000 
L_front_hand01_01 0.000000 0.000000 0.000000 0.000000 0.000000 0.000000 10.000000 
L_front_hand02_01 0.000000 0.000000 0.000000 0.000000 0.000000 0.000000 10.000000 
L_front_hand03_01 0.000000 0.000000 0.000000 0.000000 0.000000 0.000000 10.000000 
L_front_hand01_02 0.000000 0.000000 0.000000 0.000000 0.000000 0.000000 10.000000 
L_front_hand02_02 0.000000 0.000000 0.000000 0.000000 0.000000 0.000000 10.000000 
L_front_hand03_02 0.000000 0.000000 0.000000 0.000000 0.000000 0.000000 10.000000 
R_forearm 0.000000 0.000000 0.000000 0.000000 0.000000 0.000000 10.000000 
R_front_hand 0.000000 0.000000 0.000000 0.000000 0.000000 0.000000 10.000000 
R_weapon_bone 0.000000 0.000000 0.000000 0.000000 0.000000 0.000000 10.000000 
R_front_hand01_01 0.000000 0.000000 0.000000 0.000000 0.000000 0.000000 10.000000 
R_front_hand02_01 0.000000 0.000000 0.000000 0.000000 0.000000 0.000000 10.000000 
R_front_hand03_01 0.000000 0.000000 0.000000 0.000000 0.000000 0.000000 10.000000 
R_front_hand01_02 0.000000 0.000000 0.000000 0.000000 0.000000 0.000000 10.000000 
R_front_hand02_02 0.000000 0.000000 0.000000 0.000000 0.000000 0.000000 10.000000 
R_front_hand03_02 0.000000 0.000000 0.000000 0.000000 0.000000 0.000000 10.000000 
null_rope01_connect 0.000000 0.000000 0.000000 0.000000 0.000000 0.000000 10.000000 
Rope1_Seg01 0.000000 0.000000 0.000000 0.000000 0.000000 0.000000 10.000000 
Rope1_Seg02 0.000000 0.000000 0.000000 0.000000 0.000000 0.000000 10.000000 
Rope1_Seg03 0.000000 0.000000 0.000000 0.000000 0.000000 0.000000 10.000000 
Rope1_Seg04 0.000000 0.000000 0.000000 0.000000 0.000000 0.000000 10.000000 
Rope1_Seg05 0.000000 0.000000 0.000000 0.000000 0.000000 0.000000 10.000000 
Rope1_Seg06 0.000000 0.000000 0.000000 0.000000 0.000000 0.000000 10.000000 
Rope1_Seg07 0.000000 0.000000 0.000000 0.000000 0.000000 0.000000 10.000000 
Rope1_Seg09 0.000000 0.000000 0.000000 0.000000 0.000000 0.000000 10.000000 
L_mid_hand01 0.000000 0.000000 0.000000 0.000000 0.000000 0.000000 10.000000 
L_mid_hand02 0.000000 0.000000 0.000000 0.000000 0.000000 0.000000 10.000000 
L_mid_hand03 0.000000 0.000000 0.000000 0.000000 0.000000 0.000000 10.000000 
null_rope02_connect 0.000000 0.000000 0.000000 0.000000 0.000000 0.000000 10.000000 
Rope2_Seg01 0.000000 0.000000 0.000000 0.000000 0.000000 0.000000 10.000000 
Rope2_Seg02 0.000000 0.000000 0.000000 0.000000 0.000000 0.000000 10.000000 
Rope2_Seg03 0.000000 0.000000 0.000000 0.000000 0.000000 0.000000 10.000000 
Rope2_Seg04 0.000000 0.000000 0.000000 0.000000 0.000000 0.000000 10.000000 
Rope2_Seg05 0.000000 0.000000 0.000000 0.000000 0.000000 0.000000 10.000000 
Rope2_Seg06 0.000000 0.000000 0.000000 0.000000 0.000000 0.000000 10.000000 
Rope2_Seg07 0.000000 0.000000 0.000000 0.000000 0.000000 0.000000 10.000000 
Rope2_Seg09 0.000000 0.000000 0.000000 0.000000 0.000000 0.000000 10.000000 
R_mid_hand01 0.000000 0.000000 0.000000 0.000000 0.000000 0.000000 10.000000 
R_mid_hand02 0.000000 0.000000 0.000000 0.000000 0.000000 0.000000 10.000000 
R_mid_hand03 0.000000 0.000000 0.000000 0.000000 0.000000 0.000000 10.000000 
spine02 0.000000 0.000000 0.000000 0.000000 0.000000 0.000000 10.000000 
spine03 0.000000 0.000000 0.000000 0.000000 0.000000 0.000000 10.000000 
pelvis 0.000000 0.000000 0.000000 0.000000 0.000000 0.000000 10.000000 
null_rope03_connect 0.000000 0.000000 0.000000 0.000000 0.000000 0.000000 10.000000 
null_rope04_connect 0.000000 0.000000 0.000000 0.000000 0.000000 0.000000 10.000000 
Rope3_Seg01 0.000000 0.000000 0.000000 0.000000 0.000000 0.000000 10.000000 
Rope3_Seg02 0.000000 0.000000 0.000000 0.000000 0.000000 0.000000 10.000000 
Rope3_Seg03 0.000000 0.000000 0.000000 0.000000 0.000000 0.000000 10.000000 
Rope3_Seg04 0.000000 0.000000 0.000000 0.000000 0.000000 0.000000 10.000000 
Rope3_Seg05 0.000000 0.000000 0.000000 0.000000 0.000000 0.000000 10.000000 
Rope3_Seg06 0.000000 0.000000 0.000000 0.000000 0.000000 0.000000 10.000000 
Rope3_Seg07 0.000000 0.000000 0.000000 0.000000 0.000000 0.000000 10.000000 
Rope3_Seg08 0.000000 0.000000 0.000000 0.000000 0.000000 0.000000 10.000000 
Rope3_Seg09 0.000000 0.000000 0.000000 0.000000 0.000000 0.000000 10.000000 
R_rear_hand01 0.000000 0.000000 0.000000 0.000000 0.000000 0.000000 10.000000 
R_rear_hand02 0.000000 0.000000 0.000000 0.000000 0.000000 0.000000 10.000000 
R_rear_hand03 0.000000 0.000000 0.000000 0.000000 0.000000 0.000000 10.000000 
Rope4_Seg01 0.000000 0.000000 0.000000 0.000000 0.000000 0.000000 10.000000 
Rope4_Seg02 0.000000 0.000000 0.000000 0.000000 0.000000 0.000000 10.000000 
Rope4_Seg03 0.000000 0.000000 0.000000 0.000000 0.000000 0.000000 10.000000 
Rope4_Seg04 0.000000 0.000000 0.000000 0.000000 0.000000 0.000000 10.000000 
Rope4_Seg05 0.000000 0.000000 0.000000 0.000000 0.000000 0.000000 10.000000 
Rope4_Seg06 0.000000 0.000000 0.000000 0.000000 0.000000 0.000000 10.000000 
Rope4_Seg07 0.000000 0.000000 0.000000 0.000000 0.000000 0.000000 10.000000 
Rope4_Seg08 0.000000 0.000000 0.000000 0.000000 0.000000 0.000000 10.000000 
Rope4_Seg09 0.000000 0.000000 0.000000 0.000000 0.000000 0.000000 10.000000 
L_rear_hand01 0.000000 0.000000 0.000000 0.000000 0.000000 0.000000 10.000000 
L_rear_hand02 0.000000 0.000000 0.000000 0.000000 0.000000 0.000000 10.000000 
L_rear_hand03 0.000000 0.000000 0.000000 0.000000 0.000000 0.000000 10.000000 
#Beginning of Data. Separated by tabs
#Fr	Tx	Ty	Tz	Rx	Ry	Rz	SF
[MASTER]
5 0.000000 0.000000 0.000000 0.001660 0.001660 0.001660 0.000000
6 0.000000 0.000000 0.000000 0.001660 0.001660 0.001660 0.000000
[root]
5 -24.028088 -17.120844 1467.434204 -82.062180 -27.917891 -102.735100 1467.730713
6 -27.192339 -25.088781 1475.470703 -78.947441 -33.963959 -107.005249 1475.934448
[chest]
5 -84.512650 -34.090519 0.000000 1.250488 4.045475 165.283203 91.129311
6 -84.512650 -34.090519 0.000000 2.145373 5.019794 165.086685 91.129311
[L_mid_tent01]
5 27.299129 22.179106 -249.918732 0.261084 11.833447 68.892235 252.381714
6 27.299131 22.179106 -249.918732 4.641298 8.786098 82.425583 252.381714
[R_mid_tent01]
5 23.228794 24.509907 226.238495 165.870895 -33.382942 77.827606 228.744751
6 23.228794 24.509907 226.238495 161.434769 -31.710623 85.043831 228.744751
[spine01]
5 -0.361383 -0.195265 0.000000 0.002042 0.001162 30.715780 0.410763
6 -0.361383 -0.195265 0.000000 0.002062 0.001122 32.879829 0.410763
[Bip01_Neck]
5 165.484543 71.581718 0.000119 176.643677 -1.657967 43.431911 180.302734
6 165.484543 71.581718 0.000119 176.643677 -1.657967 43.431915 180.302734
[L_humerus]
5 -13.983130 -135.272980 -120.471481 -171.819366 57.118660 -61.540089 181.680161
6 -13.983130 -135.272980 -120.471481 -179.616348 40.241863 -62.762424 181.680161
[R_humerus]
5 -13.983309 -135.273102 125.287651 138.521286 -77.885277 -41.986683 184.909012
6 -13.983309 -135.273102 125.287651 159.353439 -70.101822 -62.549023 184.909012
[weapon_bone]
5 235.964890 -300.705902 0.000000 0.000000 -89.951546 -128.212341 382.234833
6 235.964890 -300.705902 0.000000 0.000000 -89.951546 -128.212341 382.234833
[Bip01_Head]
5 213.470459 185.642471 12.719955 9.047622 9.096795 -43.784550 283.186432
6 213.553314 185.411774 15.697084 17.990292 6.880153 -43.829922 283.247131
[eye_left_bone]
5 -24.626970 125.451866 -64.772606 0.000000 -90.000000 -99.840431 143.318359
6 -24.626970 125.451866 -64.772606 0.000000 -90.000000 -99.840431 143.318359
[eye_right_bone]
5 -24.626970 125.451866 64.327362 0.000000 -89.972023 80.156380 143.117676
6 -24.626970 125.451866 64.327362 0.000000 -89.965736 80.156380 143.117676
[L_forearm]
5 322.776093 0.000000 -0.000119 0.000396 -0.002314 -109.419975 322.776093
6 322.776093 0.000000 -0.000119 0.000396 -0.002314 -109.419975 322.776093
[L_front_hand]
5 241.149185 -0.042021 -3.300071 -178.667953 -1.835447 -27.422350 241.171753
6 241.149185 -0.042021 -3.300071 -178.667953 -1.835447 -27.422344 241.171753
[L_weapon_bone]
5 156.183838 0.000000 0.000000 0.000014 0.000007 0.000001 156.183838
6 156.183838 0.000000 0.000000 0.000014 0.000007 0.000001 156.183838
[L_front_hand01_01]
5 86.095154 20.947098 -0.655860 -0.358124 -0.483585 74.301987 88.609184
6 86.095154 20.947098 -0.655860 -0.349230 -0.490139 73.139862 88.609184
[L_front_hand02_01]
5 86.935165 -11.437475 24.513514 152.741364 -59.405788 -59.444736 91.046425
6 86.935165 -11.437475 24.513514 151.025055 -58.854893 -57.448074 91.046425
[L_front_hand03_01]
5 86.637497 -14.123976 -20.424902 -152.381119 57.628048 -60.890831 90.126129
6 86.637497 -14.123976 -20.424902 -150.781433 57.074539 -58.996449 90.126129
[L_front_hand01_02]
5 71.020905 -0.000179 0.000030 0.000319 -0.002325 -105.611748 71.020905
6 71.020905 -0.000179 0.000030 0.000318 -0.002326 -105.574486 71.020905
[L_front_hand02_02]
5 71.020927 -0.000119 0.000060 0.000319 -0.002325 -105.611748 71.020927
6 71.020927 -0.000119 0.000060 0.000318 -0.002326 -105.574486 71.020927
[L_front_hand03_02]
5 71.020905 -0.000060 0.000060 0.000319 -0.002325 -105.611748 71.020905
6 71.020905 -0.000060 0.000060 0.000318 -0.002326 -105.574486 71.020905
[R_forearm]
5 322.776428 -0.000060 0.000030 0.202103 0.065158 -108.062820 322.776428
6 322.776428 -0.000060 0.000030 0.202103 0.065158 -108.062820 322.776428
[R_front_hand]
5 238.847015 -0.006795 2.210259 -2.635298 -10.645462 -26.312506 238.857239
6 238.847015 -0.006795 2.210259 -2.635299 -10.645460 -26.312500 238.857239
[R_weapon_bone]
5 155.664093 0.002503 -0.000030 0.003487 0.001180 -90.988930 155.664078
6 155.664093 0.002503 -0.000030 0.003487 0.001180 -90.988930 155.664078
[R_front_hand01_01]
5 87.624611 14.231146 22.918642 -153.171539 -59.529896 60.052429 91.683487
6 87.624611 14.231146 22.918642 -151.601074 -59.040489 58.224773 91.683487
[R_front_hand02_01]
5 89.356956 14.367283 -19.491137 153.232147 57.885738 62.134083 92.579636
6 89.356956 14.367283 -19.491137 151.761566 57.399368 60.393955 92.579636
[R_front_hand03_01]
5 87.286232 -22.307278 -0.143439 0.154710 -0.427505 -74.818459 90.091743
6 87.286232 -22.307278 -0.143439 0.146836 -0.431871 -73.769867 90.091743
[R_front_hand01_02]
5 71.020905 0.000060 0.000119 0.002323 -0.000334 106.381706 71.020905
6 71.020905 0.000060 0.000119 0.002323 -0.000334 106.381706 71.020905
[R_front_hand02_02]
5 71.020844 -0.000030 -0.000119 0.002323 -0.000334 106.381706 71.020836
6 71.020844 -0.000030 -0.000119 0.002323 -0.000334 106.381706 71.020836
[R_front_hand03_02]
5 71.020905 0.000000 0.000030 0.002323 -0.000334 106.381706 71.020905
6 71.020905 0.000000 0.000030 0.002323 -0.000334 106.381706 71.020905
[null_rope01_connect]
5 328.732483 0.000000 -0.000238 -91.855896 -71.879791 140.531052 328.732483
6 328.732483 0.000000 -0.000238 -73.973328 -69.103592 116.164894 328.732483
[Rope1_Seg01]
5 -0.000032 -0.000064 0.000128 149.863388 72.350746 170.224182 0.000147
6 -0.000031 -0.000061 0.000122 -152.719269 55.200195 -132.099854 0.000140
[Rope1_Seg02]
5 139.999863 -0.000179 0.000000 -14.109481 24.619015 13.058393 139.999863
6 139.999863 -0.000179 0.000000 -30.491922 17.454588 11.122028 139.999863
[Rope1_Seg03]
5 139.999924 0.000060 -0.000060 -15.676429 27.635727 24.937729 139.999924
6 139.999924 0.000060 -0.000060 -23.189886 12.529912 20.689451 139.999924
[Rope1_Seg04]
5 139.999924 -0.000060 -0.000119 2.945446 -54.675137 3.648551 139.999924
6 139.999924 -0.000060 -0.000119 17.890505 -53.769047 -2.735767 139.999924
[Rope1_Seg05]
5 139.999832 0.000119 -0.000060 -2.970313 -12.258462 1.499988 139.999832
6 139.999832 0.000119 -0.000060 -0.953201 -13.633456 3.568033 139.999832
[Rope1_Seg06]
5 139.999954 0.000119 -0.000060 -1.329175 -4.324719 0.640849 139.999954
6 139.999954 0.000119 -0.000060 -0.633027 -4.942654 1.514141 139.999954
[Rope1_Seg07]
5 139.999985 0.000060 0.000000 -0.845882 -2.454347 0.306702 139.999985
6 139.999985 0.000060 0.000000 -0.428525 -2.755344 0.813414 139.999985
[Rope1_Seg09]
5 121.602913 0.000119 -0.000089 -89.793175 -1.359789 0.847147 121.602913
6 121.602913 0.000119 -0.000089 -89.793175 -1.359789 0.847147 121.602913
[L_mid_hand01]
5 103.859421 1.038730 8.195221 115.408714 -54.701881 -21.722248 104.187431
6 103.859421 1.038730 8.195221 112.493240 -49.600185 -18.031643 104.187431
[L_mid_hand02]
5 105.572853 -4.139662 -10.864139 -156.174301 38.799179 -54.227295 106.211075
6 105.572853 -4.139662 -10.864139 -152.303986 36.371010 -47.886745 106.211075
[L_mid_hand03]
5 104.641464 17.579376 -3.913581 -10.556284 15.605946 59.190216 106.179977
6 104.641464 17.579376 -3.913581 -12.027911 14.512395 53.523804 106.179977
[null_rope02_connect]
5 328.732849 0.000179 -0.000119 -130.580887 57.875553 1.048581 328.732849
6 328.732849 0.000179 -0.000119 -127.040047 59.182457 3.511540 328.732849
[Rope2_Seg01]
5 0.000040 0.000110 0.000000 -84.376900 23.201359 -30.312677 0.000117
6 0.000031 0.000109 0.000000 53.574680 12.395804 -46.406040 0.000113
[Rope2_Seg02]
5 139.999741 -0.000060 -0.000119 -21.264599 -14.502283 20.051266 139.999756
6 139.999741 -0.000060 -0.000119 150.717804 21.649736 -21.910694 139.999756
[Rope2_Seg03]
5 140.000107 0.000030 0.000000 1.048448 -8.305135 2.524232 140.000107
6 140.000107 0.000030 0.000000 0.729829 -12.322675 4.689838 140.000107
[Rope2_Seg04]
5 139.999802 0.000000 -0.000060 -4.819148 -4.763265 8.016303 139.999802
6 139.999802 0.000000 -0.000060 0.918447 -6.611555 1.969982 139.999802
[Rope2_Seg05]
5 139.999985 -0.000060 0.000119 -9.562428 -9.018827 21.136316 139.999985
6 139.999985 -0.000060 0.000119 1.820585 -11.797611 2.419425 139.999985
[Rope2_Seg06]
5 139.999893 -0.000030 -0.000119 -4.017210 -11.731048 18.281506 139.999893
6 139.999893 -0.000030 -0.000119 0.606450 -20.987644 5.348802 139.999893
[Rope2_Seg07]
5 139.999893 0.000060 -0.000060 -0.257756 -8.234985 11.319108 139.999893
6 139.999893 0.000060 -0.000060 -1.086695 -21.095594 6.299264 139.999893
[Rope2_Seg09]
5 121.338966 0.000089 -0.000060 33.793236 -1.359788 -0.847141 121.338966
6 121.338966 0.000089 -0.000060 33.793236 -1.359788 -0.847141 121.338966
[R_mid_hand01]
5 104.680779 11.144459 -10.335981 -22.984858 42.734222 60.718655 105.778534
6 104.680779 11.144459 -10.335981 -25.740593 41.350704 56.606117 105.778534
[R_mid_hand02]
5 104.070427 2.443552 8.231699 58.419544 -61.729733 28.969135 104.424065
6 104.070427 2.443552 8.231699 61.361111 -58.825871 25.577074 104.424065
[R_mid_hand03]
5 106.028137 -11.221827 -5.996406 -175.069138 15.041782 -68.893341 106.788818
6 106.028137 -11.221827 -5.996406 -174.179749 14.727765 -65.439743 106.788818
[spine02]
5 129.756927 0.001550 0.000119 0.360061 -4.044797 -12.915058 129.756927
6 129.756927 0.001550 0.000119 0.360061 -4.044797 -12.915058 129.756927
[spine03]
5 78.614067 0.081635 -4.899007 1.896495 3.831288 16.473045 78.766602
6 78.614067 0.081635 -4.899008 1.896494 3.831287 16.473045 78.766602
[pelvis]
5 169.435242 0.051022 0.000000 -0.060465 -0.180225 14.087931 169.435257
6 169.435242 0.051022 0.000000 -0.060465 -0.180225 14.087931 169.435257
[null_rope03_connect]
5 -1.257226 -2.466202 137.391083 -46.919006 -78.067261 117.365631 137.418976
6 -1.257226 -2.466202 137.391083 -45.188885 -75.397964 120.130745 137.418976
[null_rope04_connect]
5 -1.259640 -2.480268 -137.844437 -46.919006 -78.067261 117.365631 137.872513
6 -1.259640 -2.480268 -137.844437 -45.188885 -75.397964 120.130745 137.872513
[Rope3_Seg01]
5 0.000010 0.000038 -0.000114 -134.736343 -20.787638 -67.904106 0.000121
6 0.000010 0.000038 -0.000114 -132.764420 -22.842894 -75.126045 0.000121
[Rope3_Seg02]
5 139.999924 -0.000119 0.000060 6.971595 -20.130083 -30.628265 139.999924
6 139.999924 -0.000119 0.000060 7.876727 -21.507830 -29.962923 139.999924
[Rope3_Seg03]
5 139.999924 -0.000119 0.000119 -1.289977 -7.205415 -13.098829 139.999924
6 139.999924 -0.000119 0.000119 1.923085 -9.902159 -14.816530 139.999924
[Rope3_Seg04]
5 139.999924 0.000119 0.000000 1.517617 -3.935897 -5.189313 139.999924
6 139.999924 0.000119 0.000000 4.193336 -5.387136 -5.523674 139.999924
[Rope3_Seg05]
5 139.999924 -0.000238 0.000060 14.834265 -5.903104 -3.069820 139.999924
6 139.999924 -0.000238 0.000060 17.366203 -7.042034 -2.538716 139.999924
[Rope3_Seg06]
5 139.999893 -0.000119 -0.000060 48.554722 -9.671561 -0.521276 139.999893
6 139.999893 -0.000119 -0.000060 40.183735 -9.796339 0.870695 139.999893
[Rope3_Seg07]
5 139.999771 0.000060 -0.000119 35.242195 -6.125223 5.333626 139.999771
6 139.999771 0.000060 -0.000119 28.572199 -5.980098 4.868485 139.999771
[Rope3_Seg08]
5 139.999985 -0.000060 0.000000 13.830790 -1.479911 5.344739 139.999985
6 139.999985 -0.000060 0.000000 13.741783 -2.107019 5.040829 139.999985
[Rope3_Seg09]
5 90.185997 -0.000179 -0.000060 89.793228 -1.359877 -0.847183 90.185997
6 90.185997 -0.000179 -0.000060 89.793228 -1.359877 -0.847183 90.185997
[R_rear_hand01]
5 103.366196 -6.073594 -10.757982 -173.471771 23.840069 -63.595013 104.101845
6 103.366196 -6.073594 -10.757982 -171.684540 23.302565 -59.125771 104.101845
[R_rear_hand02]
5 100.509819 12.039542 -7.992327 -19.370905 34.238888 61.013897 101.543350
6 100.509819 12.039542 -7.992327 -21.930750 32.777496 56.381863 101.543350
[R_rear_hand03]
5 101.539970 5.215704 5.435467 77.523743 -62.710114 14.990737 101.819031
6 101.539970 5.215704 5.435467 79.009171 -58.663548 13.282337 101.819031
[Rope4_Seg01]
5 0.000010 0.000032 -0.000128 44.155933 -21.589283 -86.635239 0.000132
6 0.000010 0.000031 -0.000122 44.177902 -33.038425 -88.573006 0.000126
[Rope4_Seg02]
5 139.999985 0.000060 0.000119 9.816917 -39.447845 -42.171658 139.999985
6 139.999985 0.000060 0.000119 4.180330 -36.740612 -48.659908 139.999985
[Rope4_Seg03]
5 139.999924 0.000000 -0.000238 -32.045509 -19.515305 -26.067141 139.999924
6 139.999924 0.000000 -0.000238 -39.190865 -10.577581 -26.433151 139.999924
[Rope4_Seg04]
5 139.999985 0.000000 0.000119 -23.279594 -0.459255 -8.465626 139.999985
6 139.999985 0.000000 0.000119 -15.451921 1.293114 -7.095920 139.999985
[Rope4_Seg05]
5 139.999802 -0.000060 -0.000119 -17.106106 -1.323574 -5.743852 139.999802
6 139.999802 -0.000060 -0.000119 -13.095142 -1.429700 -6.339689 139.999802
[Rope4_Seg06]
5 139.999924 0.000000 0.000060 -34.657021 -2.004942 -8.647360 139.999924
6 139.999924 0.000000 0.000060 -33.768635 -3.247126 -11.913902 139.999924
[Rope4_Seg07]
5 139.999802 0.000000 0.000000 -51.198269 4.129040 -12.719348 139.999802
6 139.999802 0.000000 0.000000 -48.098454 5.267097 -15.774437 139.999802
[Rope4_Seg08]
5 139.999924 0.000000 0.000119 -13.479674 7.874322 -2.013562 139.999924
6 139.999924 0.000000 0.000119 -14.212085 9.543900 -3.266355 139.999924
[Rope4_Seg09]
5 90.185791 0.000060 0.000060 -135.617828 2.228885 0.850567 90.185791
6 90.185791 0.000060 0.000060 -135.617828 2.228885 0.850567 90.185791
[L_rear_hand01]
5 101.696655 -8.392275 -7.654577 -28.015862 -27.942142 135.607529 102.329041
6 101.696655 -8.392275 -7.654577 -30.719053 -24.879360 141.681381 102.329041
[L_rear_hand02]
5 102.726799 -1.568258 5.773216 81.577332 47.415264 169.913025 102.900848
6 102.726799 -1.568258 5.773216 82.428497 41.230476 171.131027 102.900848
[L_rear_hand03]
5 104.552910 9.721220 -10.420293 -167.078079 -21.194330 -132.993347 105.519653
6 104.552910 9.721220 -10.420293 -164.822937 -19.676035 -139.457687 105.519653
